<svg width="200" height="150" viewBox="0 0 200 150" fill="none" xmlns="http://www.w3.org/2000/svg">
  <defs>
    <linearGradient id="step3Grad" x1="0%" y1="0%" x2="100%" y2="100%">
      <stop offset="0%" style="stop-color:#8B5CF6;stop-opacity:1" />
      <stop offset="100%" style="stop-color:#7C3AED;stop-opacity:1" />
    </linearGradient>
  </defs>
  
  <!-- Document -->
  <rect x="60" y="40" width="80" height="90" fill="#FFF" stroke="#E5E7EB" stroke-width="2" rx="6"/>
  
  <!-- Document content -->
  <rect x="70" y="50" width="60" height="4" fill="url(#step3Grad)" rx="2"/>
  <rect x="70" y="58" width="50" height="3" fill="#6B7280" rx="1"/>
  <rect x="70" y="64" width="60" height="3" fill="#6B7280" rx="1"/>
  <rect x="70" y="70" width="45" height="3" fill="#6B7280" rx="1"/>
  <rect x="70" y="76" width="55" height="3" fill="#6B7280" rx="1"/>
  <rect x="70" y="82" width="40" height="3" fill="#6B7280" rx="1"/>
  <rect x="70" y="88" width="60" height="3" fill="#6B7280" rx="1"/>
  <rect x="70" y="94" width="35" height="3" fill="#6B7280" rx="1"/>
  <rect x="70" y="100" width="50" height="3" fill="#6B7280" rx="1"/>
  <rect x="70" y="106" width="45" height="3" fill="#6B7280" rx="1"/>
  <rect x="70" y="112" width="55" height="3" fill="#6B7280" rx="1"/>
  <rect x="70" y="118" width="40" height="3" fill="#6B7280" rx="1"/>
  
  <!-- Quality badge -->
  <circle cx="130" cy="50" r="8" fill="url(#step3Grad)"/>
  <text x="130" y="54" text-anchor="middle" fill="#FFF" font-size="8" font-weight="bold">✓</text>
  
  <!-- Step number -->
  <circle cx="30" cy="30" r="8" fill="url(#step3Grad)"/>
  <text x="30" y="34" text-anchor="middle" fill="#FFF" font-size="10" font-weight="bold">3</text>
  
  <!-- Export options -->
  <rect x="150" y="60" width="30" height="20" fill="url(#step3Grad)" opacity="0.1" rx="4"/>
  <text x="165" y="72" text-anchor="middle" fill="url(#step3Grad)" font-size="8" font-weight="bold">Export</text>
  
  <!-- Download arrow -->
  <path d="M165 85 L165 95 M160 90 L165 95 L170 90" stroke="url(#step3Grad)" stroke-width="2" fill="none" stroke-linecap="round"/>
  
  <!-- Sharing icons -->
  <circle cx="40" cy="100" r="6" fill="#1DA1F2" opacity="0.8"/>
  <text x="40" y="104" text-anchor="middle" fill="#FFF" font-size="8" font-weight="bold">T</text>
  
  <circle cx="40" cy="115" r="6" fill="#4267B2" opacity="0.8"/>
  <text x="40" y="119" text-anchor="middle" fill="#FFF" font-size="8" font-weight="bold">f</text>
  
  <!-- Success indicator -->
  <rect x="80" y="20" width="40" height="15" fill="url(#step3Grad)" opacity="0.1" rx="8"/>
  <text x="100" y="30" text-anchor="middle" fill="url(#step3Grad)" font-size="10" font-weight="bold">Ready!</text>
  
  <!-- Floating elements -->
  <rect x="20" y="70" width="25" height="15" fill="url(#step3Grad)" opacity="0.1" rx="4">
    <animateTransform attributeName="transform" type="translate" values="0,0; 0,-3; 0,0" dur="3s" repeatCount="indefinite"/>
  </rect>
  <text x="32" y="80" text-anchor="middle" fill="url(#step3Grad)" font-size="8" font-weight="bold">Share</text>
</svg>